<svg xmlns="http://www.w3.org/2000/svg" xmlns:xlink="http://www.w3.org/1999/xlink" viewBox="0 0 410.06 385.81"><defs><clipPath id="ede81845-cb74-4d4e-8980-5ef705076f6e" transform="translate(-42.94 -59.44)"><path d="M265.07,249l6.1,18a5.93,5.93,0,0,0,6.36,4l26.79-2.92a5.94,5.94,0,0,0,5.2-5.38l1.66-18.93a4.19,4.19,0,0,0-4.65-4.54l-37.93,4.24A4.21,4.21,0,0,0,265.07,249Z" fill="#263238" stroke="#263238" stroke-linecap="round" stroke-linejoin="round" stroke-width="1.08"/></clipPath></defs><title>3814262</title><g id="fc058f0e-7aca-4b56-be42-716790f1c856" data-name="Background Simple"><path d="M51.08,268.53s2.33,72.16,62.57,120.25,143.69,51.54,211.26,56.11S444.38,411.2,452.2,353.38s-43.81-74.79-71.82-140.61-25.52-87.46-84.79-127.94S143.59,69.21,95,138.56,51.08,268.53,51.08,268.53Z" transform="translate(-42.94 -59.44)" fill="#fff"/><path d="M51.08,268.53s2.33,72.16,62.57,120.25,143.69,51.54,211.26,56.11S444.38,411.2,452.2,353.38s-43.81-74.79-71.82-140.61-25.52-87.46-84.79-127.94S143.59,69.21,95,138.56,51.08,268.53,51.08,268.53Z" transform="translate(-42.94 -59.44)" fill="#3555a6" opacity="0.7"/></g><g id="b9230b37-d4e9-48f0-bc8d-dbb4d4c5b135" data-name="Floor"><line x1="395.69" y1="223.71" y2="223.71" fill="none" stroke="#263238" stroke-miterlimit="10" stroke-width="1.08"/></g><g id="bd1248b5-665f-49f4-b307-8c250c487eda" data-name="Text"><path d="M115.52,167.84c0-2.75,1.27-4.77,4.13-4.77s4.18,2,4.18,4.77v9.66c0,2.75-1.27,4.77-4.18,4.77s-4.13-2-4.13-4.77Zm1.24,9.74c0,2,.81,3.56,2.89,3.56s2.94-1.51,2.94-3.56v-9.82c0-2-.84-3.56-2.94-3.56s-2.89,1.51-2.89,3.56Z" transform="translate(-42.94 -59.44)" fill="#263238"/><path d="M125.8,167.84c0-2.75,1.27-4.77,4.12-4.77s4.18,2,4.18,4.77v9.66c0,2.75-1.26,4.77-4.18,4.77s-4.12-2-4.12-4.77Zm1.24,9.74c0,2,.81,3.56,2.88,3.56s2.94-1.51,2.94-3.56v-9.82c0-2-.83-3.56-2.94-3.56s-2.88,1.51-2.88,3.56Z" transform="translate(-42.94 -59.44)" fill="#263238"/><path d="M140.06,163.23c2.92,0,4.05,1.84,4.05,4.59v2.05c0,3-1.38,4.47-4.37,4.47h-2.35v7.77h-1.24V163.23Zm-.32,10c2.18,0,3.13-1,3.13-3.26v-2.21c0-2.05-.7-3.37-2.81-3.37h-2.67v8.84Z" transform="translate(-42.94 -59.44)" fill="#263238"/><path d="M153.93,167.79v.4h-1.19v-.48c0-2-.75-3.51-2.8-3.51s-2.81,1.49-2.81,3.48c0,4.59,6.82,4.67,6.82,9.87,0,2.72-1.18,4.72-4.07,4.72s-4.07-2-4.07-4.72v-1H147v1c0,2,.78,3.48,2.86,3.48s2.85-1.46,2.85-3.48c0-4.53-6.82-4.61-6.82-9.87,0-2.83,1.24-4.66,4-4.69S153.93,165.07,153.93,167.79Z" transform="translate(-42.94 -59.44)" fill="#263238"/><path d="M157,179.74v2.37h-1.21v-2.37Z" transform="translate(-42.94 -59.44)" fill="#263238"/><path d="M160.4,179.74v2.37h-1.21v-2.37Z" transform="translate(-42.94 -59.44)" fill="#263238"/><path d="M163.77,179.74v2.37h-1.21v-2.37Z" transform="translate(-42.94 -59.44)" fill="#263238"/><path d="M71.26,246.67l21.25-50.25h12.75v50.25h5.52v10.62h-5.52v13.49H93.78V257.29H71.26Zm22.52,0V218.73L82,246.67Z" transform="translate(-42.94 -59.44)" fill="#263238"/><path d="M115.14,214.26c0-11.89,6.27-18.69,17.74-18.69s17.74,6.8,17.74,18.69v38.67c0,11.9-6.27,18.7-17.74,18.7s-17.74-6.8-17.74-18.7Zm11.68,39.42c0,5.31,2.34,7.33,6.06,7.33s6.06-2,6.06-7.33V213.52c0-5.31-2.34-7.33-6.06-7.33s-6.06,2-6.06,7.33Z" transform="translate(-42.94 -59.44)" fill="#263238"/><path d="M155.4,246.67l21.25-50.25H189.4v50.25h5.52v10.62H189.4v13.49H177.92V257.29H155.4Zm22.52,0V218.73l-11.79,27.94Z" transform="translate(-42.94 -59.44)" fill="#263238"/><path d="M76.38,288.64c2.86,0,4,1.8,4,4.49v2c0,2.93-1.35,4.39-4.28,4.39h-2.3v7.6H72.55V288.64Zm-.31,9.78c2.14,0,3.06-1,3.06-3.2v-2.17c0-2-.68-3.3-2.75-3.3H73.77v8.67Z" transform="translate(-42.94 -59.44)" fill="#263238"/><path d="M83.6,303l-.93,4.09h-1.1l4-18.52h1.77l4.12,18.52H90.28L89.36,303Zm.18-1.06h5.39l-2.72-12Z" transform="translate(-42.94 -59.44)" fill="#263238"/><path d="M101.23,293.16v1.37h-1.17v-1.45c0-2-.76-3.49-2.8-3.49s-2.8,1.51-2.8,3.49v9.62c0,2,.77,3.46,2.8,3.46s2.8-1.48,2.8-3.46v-4H97.61V297.6h3.62v5c0,2.67-1.17,4.67-4,4.67s-4-2-4-4.67v-9.46c0-2.67,1.16-4.68,4-4.68S101.23,290.49,101.23,293.16Z" transform="translate(-42.94 -59.44)" fill="#263238"/><path d="M109.52,297.2v1.11h-5V306h6.07v1.1h-7.29V288.64h7.29v1.11h-6.07v7.45Z" transform="translate(-42.94 -59.44)" fill="#263238"/><path d="M117.74,307.13h-1.11V288.64h1.59l5.55,15.61V288.64h1.11v18.49h-1.35l-5.79-16.48Z" transform="translate(-42.94 -59.44)" fill="#263238"/><path d="M126.89,293.16c0-2.7,1.24-4.68,4-4.68s4.09,2,4.09,4.68v9.46c0,2.69-1.24,4.67-4.09,4.67s-4-2-4-4.67Zm1.21,9.54c0,2,.79,3.48,2.83,3.48s2.88-1.48,2.88-3.48v-9.62c0-2-.82-3.49-2.88-3.49s-2.83,1.48-2.83,3.49Z" transform="translate(-42.94 -59.44)" fill="#263238"/><path d="M140.15,307.13V289.75H136.4v-1.11h8.74v1.11h-3.77v17.38Z" transform="translate(-42.94 -59.44)" fill="#263238"/><path d="M156.75,297.65v1.11H152v8.37h-1.21V288.64h7v1.11H152v7.9Z" transform="translate(-42.94 -59.44)" fill="#263238"/><path d="M159.55,293.16c0-2.7,1.24-4.68,4-4.68s4.1,2,4.1,4.68v9.46c0,2.69-1.25,4.67-4.1,4.67s-4-2-4-4.67Zm1.21,9.54c0,2,.8,3.48,2.83,3.48s2.88-1.48,2.88-3.48v-9.62c0-2-.82-3.49-2.88-3.49s-2.83,1.48-2.83,3.49Z" transform="translate(-42.94 -59.44)" fill="#263238"/><path d="M170.86,302.67c0,2,.74,3.51,2.77,3.51s2.78-1.53,2.78-3.51v-14h1.13v14c0,2.64-1.11,4.67-3.93,4.67s-4-2-4-4.67v-14h1.22Z" transform="translate(-42.94 -59.44)" fill="#263238"/><path d="M180.74,307.13h-1.11V288.64h1.59l5.55,15.61V288.64h1.11v18.49h-1.35l-5.79-16.48Z" transform="translate(-42.94 -59.44)" fill="#263238"/><path d="M194,288.64c2.86,0,4.1,1.88,4.1,4.6v9.3c0,2.72-1.24,4.59-4.1,4.59H190V288.64ZM194,306c2.06,0,2.9-1.41,2.9-3.44v-9.41c0-2-.87-3.43-2.9-3.43h-2.83V306Z" transform="translate(-42.94 -59.44)" fill="#263238"/></g><g id="e70f6eb7-d548-4846-ac01-80bea81c5d76" data-name="Plants"><path d="M415.66,82.14s0-4.94-6.91-11.84S397.4,59.44,397.4,59.44s-3.45,11.35,3,18.26A122.32,122.32,0,0,0,415.66,91Z" transform="translate(-42.94 -59.44)" fill="#c6ff00"/><path d="M405.63,113s0-4.94-6.9-11.84-11.35-10.86-11.35-10.86-3.45,11.35,3,18.26a121.81,121.81,0,0,0,15.29,13.32Z" transform="translate(-42.94 -59.44)" fill="#c6ff00"/><path d="M415.22,90.54s.53-4.91,8.12-11.05,12.43-9.59,12.43-9.59S438,81.55,430.9,87.74a121.71,121.71,0,0,1-16.61,11.63Z" transform="translate(-42.94 -59.44)" fill="#c6ff00"/><path d="M403.11,126.93s1-4.83,9.24-10.14,13.37-8.23,13.37-8.23,1,11.82-6.72,17.23a121.33,121.33,0,0,1-17.75,9.82Z" transform="translate(-42.94 -59.44)" fill="#c6ff00"/><path d="M405.39,166.6s0-4.94,6.91-11.84,11.34-10.86,11.34-10.86,3.46,11.35-3,18.26a121.81,121.81,0,0,1-15.29,13.32Z" transform="translate(-42.94 -59.44)" fill="#c6ff00"/><path d="M405.28,176.28s.7-4.88-5.16-12.7-9.69-12.36-9.69-12.36-5,10.74.34,18.49A121.74,121.74,0,0,0,404,185.07Z" transform="translate(-42.94 -59.44)" fill="#c6ff00"/><path d="M398.47,205s0-4.93,6.9-11.84,11.35-10.86,11.35-10.86,3.45,11.35-3,18.26a120.87,120.87,0,0,1-15.29,13.32Z" transform="translate(-42.94 -59.44)" fill="#c6ff00"/><path d="M403.08,231s-1.25-4.78,3.68-13.21S415,204.42,415,204.42s6.21,10.1,1.76,18.41a122.35,122.35,0,0,1-11.42,16.76Z" transform="translate(-42.94 -59.44)" fill="#c6ff00"/><path d="M416.28,80.87a139.13,139.13,0,0,1-1.89,15.32c-2.73,14.11-9.55,23.21-12.28,35.95s5.1,29.15,3,45.52-8.46,25.46-6.64,36.39,11.37,40.49,11.37,40.49" transform="translate(-42.94 -59.44)" fill="none" stroke="#263238" stroke-linecap="round" stroke-linejoin="round" stroke-width="1.08"/><line x1="372.21" y1="34.38" x2="379.66" y2="28.66" fill="none" stroke="#263238" stroke-linecap="round" stroke-linejoin="round" stroke-width="1.08"/><line x1="372.56" y1="27.8" x2="369.44" y2="22.26" fill="none" stroke="#263238" stroke-linecap="round" stroke-linejoin="round" stroke-width="1.08"/><path d="M402.52,131.55s6.23-4.67,12.64-9.34" transform="translate(-42.94 -59.44)" fill="none" stroke="#263238" stroke-linecap="round" stroke-linejoin="round" stroke-width="1.08"/><path d="M405.63,121.83s-5.19-10.18-11.07-16.93" transform="translate(-42.94 -59.44)" fill="none" stroke="#263238" stroke-linecap="round" stroke-linejoin="round" stroke-width="1.08"/><path d="M405.64,173.62A77,77,0,0,1,419,155.79" transform="translate(-42.94 -59.44)" fill="none" stroke="#263238" stroke-linecap="round" stroke-linejoin="round" stroke-width="1.08"/><path d="M404.42,180.54a86.78,86.78,0,0,0-6.75-12.81c-3.63-5.37-4.15-6.06-4.15-6.06" transform="translate(-42.94 -59.44)" fill="none" stroke="#263238" stroke-linecap="round" stroke-linejoin="round" stroke-width="1.08"/><path d="M398.47,214.05a82.12,82.12,0,0,1,5.61-11.35,72.05,72.05,0,0,1,7.27-9.52" transform="translate(-42.94 -59.44)" fill="none" stroke="#263238" stroke-linecap="round" stroke-linejoin="round" stroke-width="1.08"/><path d="M405.33,239.59a21.19,21.19,0,0,1,1.86-10.93c2.6-5,5.54-11.6,6.75-14.19" transform="translate(-42.94 -59.44)" fill="none" stroke="#263238" stroke-linecap="round" stroke-linejoin="round" stroke-width="1.08"/><path d="M370.43,148s-.54-3.09,3.05-8.17,5.93-8,5.93-8,3.4,6.74.13,11.77a76.51,76.51,0,0,1-8.15,10Z" transform="translate(-42.94 -59.44)" fill="#c6ff00"/><path d="M380.06,166.28s-.54-3.1,3.05-8.18,5.93-8,5.93-8,3.4,6.74.13,11.77a76.51,76.51,0,0,1-8.15,10Z" transform="translate(-42.94 -59.44)" fill="#c6ff00"/><path d="M371.61,153.27s-.86-3-6.29-6.05-8.83-4.67-8.83-4.67-.14,7.55,5,10.66a77.4,77.4,0,0,0,11.68,5.49Z" transform="translate(-42.94 -59.44)" fill="#c6ff00"/><path d="M383.16,174.77s-1.17-2.91-6.89-5.35-9.28-3.71-9.28-3.71.66,7.52,6.08,10.07a77.72,77.72,0,0,0,12.2,4.23Z" transform="translate(-42.94 -59.44)" fill="#c6ff00"/><path d="M386,199.89s-.54-3.09-5.62-6.67-8.29-5.58-8.29-5.58-.94,7.49,3.83,11.13a78.05,78.05,0,0,0,11,6.69Z" transform="translate(-42.94 -59.44)" fill="#c6ff00"/><path d="M387.16,206s-1-3,1.85-8.52,4.74-8.8,4.74-8.8,4.32,6.19,1.79,11.63a77.27,77.27,0,0,1-6.63,11.07Z" transform="translate(-42.94 -59.44)" fill="#c6ff00"/><path d="M395.83,230.91s.36-3.12,5.23-7,8-6,8-6,1.36,7.43-3.2,11.33a77,77,0,0,1-10.63,7.31Z" transform="translate(-42.94 -59.44)" fill="#c6ff00"/><path d="M394.55,223.21s-.54-3.09-5.62-6.68-8.29-5.57-8.29-5.57-.94,7.49,3.83,11.13a78.05,78.05,0,0,0,11,6.69Z" transform="translate(-42.94 -59.44)" fill="#c6ff00"/><path d="M394.48,240s.26-3.13-3.74-7.88-6.61-7.5-6.61-7.5-2.81,7,.89,11.74a78.12,78.12,0,0,0,9,9.27Z" transform="translate(-42.94 -59.44)" fill="#c6ff00"/><path d="M369.9,147.32a89.48,89.48,0,0,0,2.85,9.4c3.24,8.55,8.51,13.51,11.61,21.21s0,18.84,3.05,28.87,8.08,15,8.12,22.09-2.74,26.64-2.74,26.64" transform="translate(-42.94 -59.44)" fill="none" stroke="#263238" stroke-linecap="round" stroke-linejoin="round" stroke-width="1.08"/><line x1="329.07" y1="95.87" x2="323.78" y2="93.1" fill="none" stroke="#263238" stroke-linecap="round" stroke-linejoin="round" stroke-width="1.08"/><line x1="328.14" y1="91.78" x2="329.49" y2="87.97" fill="none" stroke="#263238" stroke-linecap="round" stroke-linejoin="round" stroke-width="1.08"/><path d="M384,177.61s-4.41-2.26-8.94-4.49" transform="translate(-42.94 -59.44)" fill="none" stroke="#263238" stroke-linecap="round" stroke-linejoin="round" stroke-width="1.08"/><path d="M381,171.84A63.32,63.32,0,0,1,386.13,160" transform="translate(-42.94 -59.44)" fill="none" stroke="#263238" stroke-linecap="round" stroke-linejoin="round" stroke-width="1.08"/><path d="M386.65,204.32a49.28,49.28,0,0,0-10.3-9.73" transform="translate(-42.94 -59.44)" fill="none" stroke="#263238" stroke-linecap="round" stroke-linejoin="round" stroke-width="1.08"/><path d="M388.16,208.53a55,55,0,0,1,2.84-8.76c1.7-3.76,1.95-4.25,1.95-4.25" transform="translate(-42.94 -59.44)" fill="none" stroke="#263238" stroke-linecap="round" stroke-linejoin="round" stroke-width="1.08"/><path d="M395.29,234.24a46,46,0,0,1,5.69-5.9,30.62,30.62,0,0,0,3.69-3.21" transform="translate(-42.94 -59.44)" fill="none" stroke="#263238" stroke-linecap="round" stroke-linejoin="round" stroke-width="1.08"/><path d="M395.53,228.89a52.72,52.72,0,0,0-4.75-6.5,46.33,46.33,0,0,0-5.59-5.18" transform="translate(-42.94 -59.44)" fill="none" stroke="#263238" stroke-linecap="round" stroke-linejoin="round" stroke-width="1.08"/><path d="M394,245.66a13.38,13.38,0,0,0-2.36-6.65c-2.17-2.87-4.73-6.67-5.77-8.17" transform="translate(-42.94 -59.44)" fill="none" stroke="#263238" stroke-linecap="round" stroke-linejoin="round" stroke-width="1.08"/><path d="M416.48,289.2H386.07a2.88,2.88,0,0,1-2.87-2.87l-4.52-34.22h45.18l-4.51,34.22A2.88,2.88,0,0,1,416.48,289.2Z" transform="translate(-42.94 -59.44)" fill="#263238"/><path d="M423.47,258H378.68a3.53,3.53,0,0,1-3.53-3.53h0a3.53,3.53,0,0,1,3.53-3.54h44.79a3.54,3.54,0,0,1,3.54,3.54h0A3.54,3.54,0,0,1,423.47,258Z" transform="translate(-42.94 -59.44)" fill="#263238"/></g><g id="f682d5d6-a543-4a65-824d-c648a45bb168" data-name="Character"><path d="M380.32,329.29a4.71,4.71,0,0,1-4.24-6.78A8,8,0,0,0,372.91,312c-7.06-4.52-23.48-5.24-29.23-5.15h-.08a4.72,4.72,0,0,1-.09-9.44c2.41-.05,23.76-.22,34.48,6.64,10.57,6.77,8.93,17.71,6.58,22.56A4.73,4.73,0,0,1,380.32,329.29Z" transform="translate(-42.94 -59.44)" fill="#263238"/><polygon points="359.13 294.75 358.1 298.27 342.35 272.38 341.94 266.78 359.13 294.75" fill="#fff" stroke="#263238" stroke-linecap="round" stroke-linejoin="round" stroke-width="1.08"/><polygon points="358.1 298.27 363.01 295.85 363.9 292.47 359.13 294.75 358.1 298.27" fill="#fff" stroke="#263238" stroke-linecap="round" stroke-linejoin="round" stroke-width="1.08"/><polygon points="339.87 263.88 358.1 263.26 363.9 292.47 359.13 294.75 339.87 263.88" fill="#fff" stroke="#263238" stroke-linecap="round" stroke-linejoin="round" stroke-width="1.08"/><polygon points="337.38 265.13 355.61 295.79 349.6 298.69 322.67 276.73 337.38 265.13" fill="#fff" stroke="#263238" stroke-linecap="round" stroke-linejoin="round" stroke-width="1.08"/><polygon points="349.6 298.69 348.77 301.8 321.63 280.25 322.67 276.73 349.6 298.69" fill="#fff" stroke="#263238" stroke-linecap="round" stroke-linejoin="round" stroke-width="1.08"/><polygon points="349.6 298.69 355.61 295.79 354.78 298.9 348.77 301.8 349.6 298.69" fill="#fff" stroke="#263238" stroke-linecap="round" stroke-linejoin="round" stroke-width="1.08"/><path d="M374.66,329.09a9.24,9.24,0,1,0,9.24-9.25A9.24,9.24,0,0,0,374.66,329.09Z" transform="translate(-42.94 -59.44)" fill="#c6ff00" stroke="#263238" stroke-linecap="round" stroke-linejoin="round" stroke-width="1.08"/><polygon points="146.23 294.75 147.26 298.27 163.01 272.38 163.43 266.78 146.23 294.75" fill="#fff" stroke="#263238" stroke-linecap="round" stroke-linejoin="round" stroke-width="1.08"/><polygon points="147.26 298.27 142.35 295.85 141.46 292.47 146.23 294.75 147.26 298.27" fill="#fff" stroke="#263238" stroke-linecap="round" stroke-linejoin="round" stroke-width="1.08"/><polygon points="165.5 263.88 147.26 263.26 141.46 292.47 146.23 294.75 165.5 263.88" fill="#fff" stroke="#263238" stroke-linecap="round" stroke-linejoin="round" stroke-width="1.08"/><polygon points="167.98 265.13 149.75 295.79 155.76 298.69 182.69 276.73 167.98 265.13" fill="#fff" stroke="#263238" stroke-linecap="round" stroke-linejoin="round" stroke-width="1.08"/><polygon points="155.76 298.69 156.59 301.8 183.73 280.25 182.69 276.73 155.76 298.69" fill="#fff" stroke="#263238" stroke-linecap="round" stroke-linejoin="round" stroke-width="1.08"/><polygon points="155.76 298.69 149.75 295.79 150.58 298.9 156.59 301.8 155.76 298.69" fill="#fff" stroke="#263238" stroke-linecap="round" stroke-linejoin="round" stroke-width="1.08"/><path d="M207.94,332.43a4.72,4.72,0,0,1-3-8.38c37.52-30.53,29.88-76.06,29.8-76.52a4.72,4.72,0,0,1,9.29-1.66c.37,2.09,8.66,51.5-33.13,85.5A4.7,4.7,0,0,1,207.94,332.43Z" transform="translate(-42.94 -59.44)" fill="#263238"/><circle cx="201.56" cy="175.07" r="18.48" fill="#adadad" stroke="#263238" stroke-linecap="round" stroke-linejoin="round" stroke-width="1.08"/><path d="M216.58,329.09a9.24,9.24,0,1,1-9.24-9.25A9.24,9.24,0,0,1,216.58,329.09Z" transform="translate(-42.94 -59.44)" fill="#c6ff00" stroke="#263238" stroke-linecap="round" stroke-linejoin="round" stroke-width="1.08"/><ellipse cx="251.05" cy="223.82" rx="29.33" ry="27.36" fill="#adadad" stroke="#263238" stroke-linecap="round" stroke-linejoin="round" stroke-width="1.08"/><path d="M278.71,271.58l2.74,10.69a11.76,11.76,0,0,0,12.69,8.23h0a11.74,11.74,0,0,0,10.27-11.08l.54-10.78Z" transform="translate(-42.94 -59.44)" fill="#263238" stroke="#263238" stroke-linecap="round" stroke-linejoin="round" stroke-width="1.08"/><path d="M336.53,217.79a27.51,27.51,0,0,1-8.18-1.12l.76-2.23c.13,0,13.26,4.27,26.63-5.51l1.39,1.91A34.54,34.54,0,0,1,336.53,217.79Z" transform="translate(-42.94 -59.44)" fill="#263238"/><path d="M351.27,235.53c-10.82-15.81-23.13-14.62-23.25-14.61l-.26-2.34c.56-.06,13.85-1.35,25.45,15.62Z" transform="translate(-42.94 -59.44)" fill="#263238"/><path d="M348.53,246.7c-14-4.31-22.41-22.95-22.77-23.74l2.16-1c.08.19,8.34,18.45,21.31,22.44Z" transform="translate(-42.94 -59.44)" fill="#263238"/><line x1="312.87" y1="151.07" x2="316.64" y2="148.56" fill="none" stroke="#263238" stroke-miterlimit="10" stroke-width="1.08"/><line x1="308.25" y1="173.32" x2="310.77" y2="178.36" fill="none" stroke="#263238" stroke-miterlimit="10" stroke-width="1.08"/><path d="M346.78,244.73a27.5,27.5,0,0,0,6.09.84" transform="translate(-42.94 -59.44)" fill="none" stroke="#263238" stroke-miterlimit="10" stroke-width="1.08"/><polygon points="197.69 154.88 201.18 179.28 288.03 170.41 287.71 145.05 197.69 154.88" fill="#fff" stroke="#263238" stroke-linecap="round" stroke-linejoin="round" stroke-width="1.08"/><polygon points="201.18 179.28 216.71 218.59 283.59 211.93 288.03 170.41 201.18 179.28" fill="#e5e5e5" stroke="#263238" stroke-linecap="round" stroke-linejoin="round" stroke-width="1.08"/><path d="M265.07,249l6.1,18a5.93,5.93,0,0,0,6.36,4l26.79-2.92a5.94,5.94,0,0,0,5.2-5.38l1.66-18.93a4.19,4.19,0,0,0-4.65-4.54l-37.93,4.24A4.21,4.21,0,0,0,265.07,249Z" transform="translate(-42.94 -59.44)" fill="#263238"/><g clip-path="url(#ede81845-cb74-4d4e-8980-5ef705076f6e)"><polyline points="222.13 199.44 233.19 198.47 236.69 188.94 244.96 203.79 249.16 192.72 251.26 196.22 271.29 193.84" fill="none" stroke="#fff" stroke-linecap="round" stroke-linejoin="round" stroke-width="1.08"/></g><path d="M265.07,249l6.1,18a5.93,5.93,0,0,0,6.36,4l26.79-2.92a5.94,5.94,0,0,0,5.2-5.38l1.66-18.93a4.19,4.19,0,0,0-4.65-4.54l-37.93,4.24A4.21,4.21,0,0,0,265.07,249Z" transform="translate(-42.94 -59.44)" fill="none" stroke="#263238" stroke-linecap="round" stroke-linejoin="round" stroke-width="1.08"/><circle cx="277.95" cy="181.88" r="4.86" fill="#fff" stroke="#263238" stroke-linecap="round" stroke-linejoin="round" stroke-width="1.08"/><path d="M324.85,256.52a4.56,4.56,0,1,1-4.56-4.56A4.56,4.56,0,0,1,324.85,256.52Z" transform="translate(-42.94 -59.44)" fill="#c6ff00" stroke="#263238" stroke-linecap="round" stroke-linejoin="round" stroke-width="1.08"/><path d="M261.72,246.6a4.86,4.86,0,1,1-6.06-3.25A4.85,4.85,0,0,1,261.72,246.6Z" transform="translate(-42.94 -59.44)" fill="#c6ff00" stroke="#263238" stroke-linecap="round" stroke-linejoin="round" stroke-width="1.08"/><path d="M265.23,261.42a4.56,4.56,0,1,1-5.68-3.05A4.55,4.55,0,0,1,265.23,261.42Z" transform="translate(-42.94 -59.44)" fill="#fff" stroke="#263238" stroke-linecap="round" stroke-linejoin="round" stroke-width="1.08"/><ellipse cx="233.42" cy="243.28" rx="12.92" ry="12.46" fill="#c6ff00" stroke="#263238" stroke-linecap="round" stroke-linejoin="round" stroke-width="1.08"/><path d="M257.37,330.68l11.83-26.56a5.09,5.09,0,0,1,6.17-2.79h0a5.09,5.09,0,0,1,3.47,6l-7.79,34.92Z" transform="translate(-42.94 -59.44)" fill="#263238" stroke="#263238" stroke-linecap="round" stroke-linejoin="round" stroke-width="1.08"/><path d="M253.42,290l25.83,60.79-31,4.26s-18.54-18.85-31-54.71Z" transform="translate(-42.94 -59.44)" fill="#adadad" stroke="#263238" stroke-linecap="round" stroke-linejoin="round" stroke-width="1.08"/><polygon points="210.47 230.51 211.69 224.74 237.53 286.74 236.31 291.3 210.47 230.51" fill="#fff" stroke="#263238" stroke-linecap="round" stroke-linejoin="round" stroke-width="1.08"/><polygon points="211.69 224.74 176.43 235.37 174.31 240.84 210.47 230.51 211.69 224.74" fill="#fff" stroke="#263238" stroke-linecap="round" stroke-linejoin="round" stroke-width="1.08"/><line x1="176.74" y1="246.62" x2="212.3" y2="235.68" fill="none" stroke="#263238" stroke-linecap="round" stroke-linejoin="round" stroke-width="1.08"/><line x1="179.47" y1="253" x2="215.34" y2="243.28" fill="none" stroke="#263238" stroke-linecap="round" stroke-linejoin="round" stroke-width="1.08"/><line x1="182.21" y1="259.69" x2="218.38" y2="249.96" fill="none" stroke="#263238" stroke-linecap="round" stroke-linejoin="round" stroke-width="1.08"/><line x1="186.16" y1="267.9" x2="221.42" y2="257.56" fill="none" stroke="#263238" stroke-linecap="round" stroke-linejoin="round" stroke-width="1.08"/><line x1="189.9" y1="274.42" x2="225.06" y2="265.16" fill="none" stroke="#263238" stroke-linecap="round" stroke-linejoin="round" stroke-width="1.08"/><line x1="193.76" y1="280.38" x2="228.1" y2="272.15" fill="none" stroke="#263238" stroke-linecap="round" stroke-linejoin="round" stroke-width="1.08"/><line x1="198.21" y1="286.11" x2="230.23" y2="278.53" fill="none" stroke="#263238" stroke-linecap="round" stroke-linejoin="round" stroke-width="1.08"/><line x1="201.36" y1="290.79" x2="233.17" y2="285.53" fill="#fff" stroke="#263238" stroke-linecap="round" stroke-linejoin="round" stroke-width="1.08"/><ellipse cx="267.84" cy="243.28" rx="12.92" ry="12.46" fill="#c6ff00" stroke="#263238" stroke-linecap="round" stroke-linejoin="round" stroke-width="1.08"/><path d="M329.77,330.68l-11.83-26.56a5.09,5.09,0,0,0-6.17-2.79h0a5.08,5.08,0,0,0-3.46,6l7.79,34.92Z" transform="translate(-42.94 -59.44)" fill="#263238" stroke="#263238" stroke-linecap="round" stroke-linejoin="round" stroke-width="1.08"/><path d="M333.73,290l-25.84,60.79,31,4.26s18.54-18.85,31-54.71Z" transform="translate(-42.94 -59.44)" fill="#adadad" stroke="#263238" stroke-linecap="round" stroke-linejoin="round" stroke-width="1.08"/><polygon points="290.78 230.51 289.57 224.74 263.73 286.74 264.95 291.3 290.78 230.51" fill="#fff" stroke="#263238" stroke-linecap="round" stroke-linejoin="round" stroke-width="1.08"/><polygon points="289.57 224.74 324.83 235.37 326.95 240.84 290.78 230.51 289.57 224.74" fill="#fff" stroke="#263238" stroke-linecap="round" stroke-linejoin="round" stroke-width="1.08"/><line x1="324.52" y1="246.62" x2="288.96" y2="235.68" fill="none" stroke="#263238" stroke-linecap="round" stroke-linejoin="round" stroke-width="1.08"/><line x1="321.79" y1="253" x2="285.92" y2="243.28" fill="none" stroke="#263238" stroke-linecap="round" stroke-linejoin="round" stroke-width="1.08"/><line x1="319.05" y1="259.69" x2="282.88" y2="249.96" fill="none" stroke="#263238" stroke-linecap="round" stroke-linejoin="round" stroke-width="1.08"/><line x1="315.1" y1="267.9" x2="279.84" y2="257.56" fill="none" stroke="#263238" stroke-linecap="round" stroke-linejoin="round" stroke-width="1.08"/><line x1="311.36" y1="274.42" x2="276.19" y2="265.16" fill="none" stroke="#263238" stroke-linecap="round" stroke-linejoin="round" stroke-width="1.08"/><line x1="307.5" y1="280.38" x2="273.15" y2="272.15" fill="none" stroke="#263238" stroke-linecap="round" stroke-linejoin="round" stroke-width="1.08"/><line x1="303.05" y1="286.11" x2="271.03" y2="278.53" fill="none" stroke="#263238" stroke-linecap="round" stroke-linejoin="round" stroke-width="1.08"/><line x1="299.9" y1="290.79" x2="268.09" y2="285.53" fill="none" stroke="#263238" stroke-linecap="round" stroke-linejoin="round" stroke-width="1.08"/><line x1="314.34" y1="178.57" x2="317.69" y2="180.04" fill="none" stroke="#263238" stroke-miterlimit="10" stroke-width="1.08"/><line x1="312.24" y1="179.83" x2="315.6" y2="185.08" fill="none" stroke="#263238" stroke-miterlimit="10" stroke-width="1.08"/><line x1="310.35" y1="180.04" x2="309.72" y2="183.4" fill="none" stroke="#263238" stroke-miterlimit="10" stroke-width="1.08"/><line x1="318.53" y1="158.21" x2="326.72" y2="158.21" fill="none" stroke="#263238" stroke-miterlimit="10" stroke-width="1.08"/><line x1="312.24" y1="158.63" x2="323.99" y2="161.99" fill="none" stroke="#263238" stroke-miterlimit="10" stroke-width="1.08"/><line x1="316.64" y1="154.22" x2="324.2" y2="153.17" fill="none" stroke="#263238" stroke-miterlimit="10" stroke-width="1.08"/><line x1="289.57" y1="180.25" x2="291.67" y2="186.34" fill="none" stroke="#263238" stroke-miterlimit="10" stroke-width="1.08"/><line x1="292.3" y1="179.83" x2="298.17" y2="189.49" fill="none" stroke="#263238" stroke-miterlimit="10" stroke-width="1.08"/><line x1="294.39" y1="174.16" x2="300.06" y2="176.05" fill="none" stroke="#263238" stroke-miterlimit="10" stroke-width="1.08"/><polygon points="325.67 171.01 323.77 173.07 325.15 175.51 322.6 174.35 320.7 176.41 321.03 173.63 318.48 172.46 321.23 171.91 321.55 169.13 322.93 171.57 325.67 171.01" fill="#c6ff00" stroke="#263238" stroke-linecap="round" stroke-linejoin="round" stroke-width="0.54"/><polygon points="328.61 143.31 326.71 145.37 328.08 147.81 325.54 146.64 323.64 148.7 323.97 145.92 321.42 144.75 324.17 144.2 324.49 141.42 325.86 143.86 328.61 143.31" fill="#c6ff00" stroke="#263238" stroke-linecap="round" stroke-linejoin="round" stroke-width="0.54"/><polygon points="297.96 191.8 296.07 193.85 297.44 196.29 294.89 195.13 293 197.19 293.32 194.41 290.78 193.24 293.52 192.69 293.85 189.91 295.22 192.35 297.96 191.8" fill="#c6ff00" stroke="#263238" stroke-linecap="round" stroke-linejoin="round" stroke-width="0.54"/><ellipse cx="207.36" cy="132.06" rx="14.11" ry="13.95" fill="#adadad" stroke="#263238" stroke-linecap="round" stroke-linejoin="round" stroke-width="1.08"/><ellipse cx="268.85" cy="128.25" rx="14.11" ry="13.95" fill="#adadad" stroke="#263238" stroke-linecap="round" stroke-linejoin="round" stroke-width="1.08"/><ellipse cx="240.48" cy="157.57" rx="17.75" ry="16.96" fill="#c6ff00" stroke="#263238" stroke-linecap="round" stroke-linejoin="round" stroke-width="1.08"/><path d="M270.43,208.3l2.45,10.76a11.73,11.73,0,0,0,12.45,8.57h0a11.75,11.75,0,0,0,10.58-10.79l.83-10.76Z" transform="translate(-42.94 -59.44)" fill="#263238" stroke="#263238" stroke-linecap="round" stroke-linejoin="round" stroke-width="1.08"/><polygon points="211.32 103.53 204.66 130.15 270.91 124.77 261.08 99.41 211.32 103.53" fill="#fff" stroke="#263238" stroke-linecap="round" stroke-linejoin="round" stroke-width="1.08"/><polygon points="204.66 130.15 216.39 159.31 268.38 154.24 270.91 124.77 204.66 130.15" fill="#e5e5e5" stroke="#263238" stroke-linecap="round" stroke-linejoin="round" stroke-width="1.08"/><path d="M277.4,201.49c-.18,4.14-3.8,7.4-8.13,7.73s-8.57-2.38-9.5-6.48c-1-4.7,2.51-9.32,8.06-9.67S277.59,196.77,277.4,201.49Z" transform="translate(-42.94 -59.44)" fill="#c6ff00" stroke="#263238" stroke-linecap="round" stroke-linejoin="round" stroke-width="1.08"/><path d="M274.09,201.72a5.22,5.22,0,0,1-5,5,5.45,5.45,0,0,1-5.9-4.21c-.49-2.84,1.74-5.51,5-5.73A5.32,5.32,0,0,1,274.09,201.72Z" transform="translate(-42.94 -59.44)" fill="#fff" stroke="#263238" stroke-linecap="round" stroke-linejoin="round" stroke-width="1.08"/><path d="M306.87,198.64c-.17,4.14-3.79,7.4-8.12,7.73s-8.58-2.38-9.5-6.49c-1.05-4.69,2.51-9.31,8.06-9.67S307.07,193.92,306.87,198.64Z" transform="translate(-42.94 -59.44)" fill="#c6ff00" stroke="#263238" stroke-linecap="round" stroke-linejoin="round" stroke-width="1.08"/><path d="M303.56,198.87a5.21,5.21,0,0,1-5,5,5.46,5.46,0,0,1-5.9-4.22c-.49-2.84,1.74-5.5,5-5.72A5.3,5.3,0,0,1,303.56,198.87Z" transform="translate(-42.94 -59.44)" fill="#fff" stroke="#263238" stroke-linecap="round" stroke-linejoin="round" stroke-width="1.08"/><path d="M277.72,213.51a2.36,2.36,0,0,1-.24-4.71l12.68-1.27a2.36,2.36,0,0,1,.47,4.7L278,213.5Z" transform="translate(-42.94 -59.44)" fill="#263238" stroke="#263238" stroke-linecap="round" stroke-linejoin="round" stroke-width="1.08"/><path d="M260.27,171.28a4.79,4.79,0,1,1-4.79-4.79A4.78,4.78,0,0,1,260.27,171.28Z" transform="translate(-42.94 -59.44)" fill="#c6ff00" stroke="#263238" stroke-linecap="round" stroke-linejoin="round" stroke-width="1.08"/><path d="M256.61,168.49a4.1,4.1,0,1,1-4.09-4.09A4.1,4.1,0,0,1,256.61,168.49Z" transform="translate(-42.94 -59.44)" fill="#c6ff00" stroke="#263238" stroke-linecap="round" stroke-linejoin="round" stroke-width="1.08"/><path d="M251.73,164.14a3.22,3.22,0,1,1-3.22-3.23A3.22,3.22,0,0,1,251.73,164.14Z" transform="translate(-42.94 -59.44)" fill="#c6ff00" stroke="#263238" stroke-linecap="round" stroke-linejoin="round" stroke-width="1.08"/><line x1="204.79" y1="103.56" x2="197.47" y2="96.77" fill="none" stroke="#263238" stroke-linecap="round" stroke-linejoin="round" stroke-width="1.08"/><path d="M297.73,168a4.79,4.79,0,1,0,4.79-4.79A4.78,4.78,0,0,0,297.73,168Z" transform="translate(-42.94 -59.44)" fill="#c6ff00" stroke="#263238" stroke-linecap="round" stroke-linejoin="round" stroke-width="1.08"/><path d="M301.39,165.18a4.1,4.1,0,1,0,4.09-4.09A4.1,4.1,0,0,0,301.39,165.18Z" transform="translate(-42.94 -59.44)" fill="#c6ff00" stroke="#263238" stroke-linecap="round" stroke-linejoin="round" stroke-width="1.08"/><path d="M306.27,160.83a3.22,3.22,0,1,0,3.22-3.23A3.22,3.22,0,0,0,306.27,160.83Z" transform="translate(-42.94 -59.44)" fill="#c6ff00" stroke="#263238" stroke-linecap="round" stroke-linejoin="round" stroke-width="1.08"/><line x1="267.33" y1="100.25" x2="274.65" y2="93.46" fill="none" stroke="#263238" stroke-linecap="round" stroke-linejoin="round" stroke-width="1.08"/><path d="M299.55,335.58c0,2.31-1.53,4.18-3.42,4.18s-3.41-1.87-3.41-4.18,1.53-4.18,3.41-4.18S299.55,333.27,299.55,335.58Z" transform="translate(-42.94 -59.44)" fill="#fff" stroke="#263238" stroke-linecap="round" stroke-linejoin="round" stroke-width="1.08"/><path d="M306.31,339.08l-.26,0-9.49-1.39a1.77,1.77,0,0,1,.51-3.5l9.49,1.38a1.77,1.77,0,0,1-.25,3.53Z" transform="translate(-42.94 -59.44)" fill="#fff" stroke="#263238" stroke-miterlimit="10" stroke-width="1.08"/><path d="M173.68,355.12c-1.24-1.95-1-4.35.64-5.36s3.88-.24,5.12,1.7.95,4.35-.65,5.36S174.91,357.07,173.68,355.12Z" transform="translate(-42.94 -59.44)" fill="#fff" stroke="#263238" stroke-linecap="round" stroke-linejoin="round" stroke-width="1.08"/><path d="M166.09,355.79a1.67,1.67,0,0,1,.23-.12l8.76-3.91a1.77,1.77,0,0,1,1.44,3.23l-8.75,3.91a1.77,1.77,0,0,1-1.68-3.11Z" transform="translate(-42.94 -59.44)" fill="#fff" stroke="#263238" stroke-miterlimit="10" stroke-width="1.08"/><path d="M400.31,310.32c-1.24-1.95-.95-4.34.64-5.35s3.88-.25,5.12,1.69.95,4.35-.64,5.36S401.54,312.27,400.31,310.32Z" transform="translate(-42.94 -59.44)" fill="#fff" stroke="#263238" stroke-linecap="round" stroke-linejoin="round" stroke-width="1.08"/><path d="M392.73,311l.22-.12,8.76-3.91a1.77,1.77,0,1,1,1.44,3.23l-8.75,3.91a1.77,1.77,0,0,1-1.67-3.11Z" transform="translate(-42.94 -59.44)" fill="#fff" stroke="#263238" stroke-miterlimit="10" stroke-width="1.08"/><path d="M231.18,357c-4,0-7.22,1.92-7.22,4.28s3.23,4.28,7.22,4.28,7.23-1.92,7.23-4.28S235.17,357,231.18,357Zm0,6.49c-2.06,0-3.73-1-3.73-2.21s1.67-2.21,3.73-2.21,3.74,1,3.74,2.21S233.25,363.49,231.18,363.49Z" transform="translate(-42.94 -59.44)" fill="#fff" stroke="#263238" stroke-miterlimit="10" stroke-width="1.08"/><path d="M296.26,357.69l-4.93-2-4.94,2-1.22,4.4,3.42,3.53h5.48l3.41-3.53Zm-3.54,5.62h-2.78l-1.74-1.79.62-2.23,2.51-1,2.5,1,.62,2.23Z" transform="translate(-42.94 -59.44)" fill="#fff" stroke="#263238" stroke-linecap="round" stroke-linejoin="round" stroke-width="1.08"/><path d="M389.82,293.8l-4.94-2-4.94,2-1.22,4.41,3.42,3.53h5.48l3.42-3.53Zm-3.55,5.63h-2.78l-1.73-1.79.61-2.24,2.51-1,2.51,1,.62,2.24Z" transform="translate(-42.94 -59.44)" fill="#fff" stroke="#263238" stroke-linecap="round" stroke-linejoin="round" stroke-width="1.08"/><path d="M329.27,367.73a1.22,1.22,0,0,1-.41-.07,3.5,3.5,0,0,1-1.62-1.39c-.55-.85-1-2.36-.13-4.7a5.54,5.54,0,0,1,3.85-3.51,7.52,7.52,0,0,1,6.53,1.49,1.17,1.17,0,0,1,.16,1.66,1.18,1.18,0,0,1-1.66.16,5.2,5.2,0,0,0-4.42-1,3.24,3.24,0,0,0-2.25,2.07c-.89,2.35.18,3,.4,3.06a1.2,1.2,0,0,1,.63,1.53A1.16,1.16,0,0,1,329.27,367.73Z" transform="translate(-42.94 -59.44)" fill="#fff" stroke="#263238" stroke-linecap="round" stroke-linejoin="round" stroke-width="1.08"/><path d="M353.65,372.07a3.55,3.55,0,0,1-1.1-.17l-19.19-6.25a3.54,3.54,0,1,1,2.19-6.73l19.2,6.25a3.54,3.54,0,0,1-1.1,6.9Z" transform="translate(-42.94 -59.44)" fill="#fff" stroke="#263238" stroke-linecap="round" stroke-linejoin="round" stroke-width="1.08"/><path d="M332.78,365.49s.76-4.88,6.86-5" transform="translate(-42.94 -59.44)" fill="none" stroke="#263238" stroke-linecap="round" stroke-linejoin="round" stroke-width="1.08"/><path d="M336.89,366.55s.77-4.87,6.86-5" transform="translate(-42.94 -59.44)" fill="none" stroke="#263238" stroke-linecap="round" stroke-linejoin="round" stroke-width="1.08"/><path d="M340.55,367.92s.76-4.87,6.85-5" transform="translate(-42.94 -59.44)" fill="none" stroke="#263238" stroke-linecap="round" stroke-linejoin="round" stroke-width="1.08"/><path d="M344.36,369s.76-4.87,6.85-5" transform="translate(-42.94 -59.44)" fill="none" stroke="#263238" stroke-linecap="round" stroke-linejoin="round" stroke-width="1.08"/><path d="M348.17,370.36s.76-4.87,6.85-5" transform="translate(-42.94 -59.44)" fill="none" stroke="#263238" stroke-linecap="round" stroke-linejoin="round" stroke-width="1.08"/><path d="M353.64,372a1.14,1.14,0,0,1-.4-.08,3.46,3.46,0,0,1-1.63-1.38c-.55-.85-1-2.36-.13-4.71a5.58,5.58,0,0,1,3.85-3.51,7.52,7.52,0,0,1,6.53,1.5,1.17,1.17,0,0,1,.16,1.66,1.18,1.18,0,0,1-1.66.16,5.19,5.19,0,0,0-4.42-1,3.21,3.21,0,0,0-2.25,2.06c-.88,2.36.18,3,.4,3.06a1.19,1.19,0,0,1-.45,2.28Z" transform="translate(-42.94 -59.44)" fill="#fff" stroke="#263238" stroke-linecap="round" stroke-linejoin="round" stroke-width="1.08"/></g></svg>